<?xml version="1.0" encoding="UTF-8"?>
<svg width="24px" height="24px" viewBox="0 0 24 24" version="1.1" xmlns="http://www.w3.org/2000/svg" xmlns:xlink="http://www.w3.org/1999/xlink">
    <!-- Generator: Sketch 51.2 (57519) - http://www.bohemiancoding.com/sketch -->
    <title>cca-markdown-viewer</title>
    <desc>Created with Sketch.</desc>
    <defs></defs>
    <g id="Page-1" stroke="none" stroke-width="1" fill="none" fill-rule="evenodd">
        <g id="Component-Palette-NEED-PADDING,-CANVAS-24px" transform="translate(-1356.000000, -108.000000)" fill="#161513" fill-rule="nonzero">
            <path d="M1370,127 L1371.46667,121 L1372.4,121 L1370.93333,127 L1370,127 Z M1373,121 L1376,123.383562 L1376,124.616438 L1373,127 L1373,125.438356 L1374.88372,124.041096 L1373,122.643836 L1373,121 Z M1369,121 L1369,122.643836 L1367.11628,124.041096 L1369,125.438356 L1369,127 L1366,124.616438 L1366,123.383562 L1369,121 Z M1364.10832,113 L1365.87338,119.893793 L1363.86487,119.893793 L1363.67213,118.686897 L1362.17082,118.686897 L1361.97808,119.893793 L1360,119.893793 L1361.73463,113 L1364.10832,113 Z M1362.91133,114.409655 L1362.39399,117.335172 L1363.44896,117.335172 L1362.93162,114.409655 L1362.91133,114.409655 Z M1366.2603,113 L1368.08622,113 L1368.08622,115.25931 L1368.10651,115.25931 C1368.20119,114.988964 1368.35166,114.80069 1368.55792,114.694483 C1368.76418,114.588275 1368.9958,114.535172 1369.25279,114.535172 C1369.51653,114.535172 1369.75322,114.57862 1369.96287,114.665517 C1370.17251,114.752414 1370.34834,114.89724 1370.49035,115.1 C1370.63237,115.30276 1370.74226,115.573102 1370.82003,115.911034 C1370.89781,116.248967 1370.93669,116.668963 1370.93669,117.171034 C1370.93669,118.142993 1370.81496,118.857469 1370.57151,119.314483 C1370.32805,119.771497 1369.902,120 1369.29336,120 C1368.96875,120 1368.70839,119.935633 1368.51227,119.806897 C1368.31615,119.67816 1368.16061,119.468967 1368.04565,119.17931 L1368.02536,119.17931 L1368.02536,119.893793 L1366.2603,119.893793 L1366.2603,113 Z M1368.08622,117.286897 C1368.08622,117.56368 1368.09299,117.795401 1368.10651,117.982069 C1368.12004,118.168737 1368.1454,118.31839 1368.18259,118.431034 C1368.21979,118.543679 1368.2722,118.622529 1368.33982,118.667586 C1368.40745,118.712644 1368.49198,118.735172 1368.59342,118.735172 C1368.70163,118.735172 1368.78954,118.712644 1368.85717,118.667586 C1368.9248,118.622529 1368.97721,118.543679 1369.0144,118.431034 C1369.0516,118.31839 1369.07696,118.168737 1369.09048,117.982069 C1369.10401,117.795401 1369.11077,117.56368 1369.11077,117.286897 C1369.11077,117.003677 1369.10401,116.768737 1369.09048,116.582069 C1369.07696,116.395401 1369.0516,116.245748 1369.0144,116.133103 C1368.97721,116.020459 1368.9248,115.941609 1368.85717,115.896552 C1368.78954,115.851494 1368.70163,115.828966 1368.59342,115.828966 C1368.49198,115.828966 1368.40745,115.851494 1368.33982,115.896552 C1368.2722,115.941609 1368.21979,116.020459 1368.18259,116.133103 C1368.1454,116.245748 1368.12004,116.395401 1368.10651,116.582069 C1368.09299,116.768737 1368.08622,117.003677 1368.08622,117.286897 Z M1374.35667,116.717241 C1374.35667,116.504827 1374.34653,116.332644 1374.32624,116.20069 C1374.30595,116.068735 1374.27552,115.96092 1374.23494,115.877241 C1374.16055,115.729195 1374.0253,115.655172 1373.82918,115.655172 C1373.72774,115.655172 1373.64152,115.67931 1373.57051,115.727586 C1373.4995,115.775862 1373.44371,115.862758 1373.40313,115.988276 C1373.36256,116.113794 1373.33382,116.281148 1373.31691,116.490345 C1373.3,116.699541 1373.29155,116.965056 1373.29155,117.286897 C1373.29155,117.608737 1373.3,117.874252 1373.31691,118.083448 C1373.33382,118.292645 1373.36256,118.45839 1373.40313,118.58069 C1373.44371,118.702989 1373.4995,118.788276 1373.57051,118.836552 C1373.64152,118.884828 1373.72774,118.908966 1373.82918,118.908966 C1373.99825,118.908966 1374.12843,118.847817 1374.21973,118.725517 C1374.31102,118.603218 1374.35667,118.377933 1374.35667,118.049655 L1374.35667,117.711724 L1376,117.711724 C1376,118.12368 1375.96281,118.474481 1375.88842,118.764138 C1375.81403,119.053795 1375.68892,119.291953 1375.51309,119.478621 C1375.16819,119.826209 1374.60689,120 1373.82918,120 C1373.47752,120 1373.1563,119.971035 1372.8655,119.913103 C1372.5747,119.855172 1372.32618,119.731265 1372.11992,119.541379 C1371.91365,119.351493 1371.75304,119.08437 1371.63808,118.74 C1371.52311,118.39563 1371.46563,117.940233 1371.46563,117.373793 C1371.46563,116.755859 1371.52987,116.260232 1371.65836,115.886897 C1371.78686,115.513561 1371.96099,115.227127 1372.18078,115.027586 C1372.40057,114.828045 1372.65924,114.696092 1372.9568,114.631724 C1373.25436,114.567356 1373.57558,114.535172 1373.92048,114.535172 C1374.32624,114.535172 1374.66268,114.588275 1374.92981,114.694483 C1375.19693,114.80069 1375.40996,114.948735 1375.56888,115.138621 C1375.7278,115.328507 1375.83939,115.55701 1375.90363,115.824138 C1375.96788,116.091266 1376,116.388964 1376,116.717241 L1374.35667,116.717241 Z" id="Combined-Shape"></path>
        </g>
    </g>
</svg>